HIERARCHY
ROOT Hips
{
	OFFSET 0.000000 0.000000 0.000000
	CHANNELS 6 Xposition Yposition Zposition Xrotation Yrotation Zrotation
	JOINT Chest
	{
		OFFSET 0.000000 0.009282 11.569106
		CHANNELS 3 Xrotation Yrotation Zrotation
		JOINT Chest2
		{
			OFFSET 0.000000 -0.016863 9.269641
			CHANNELS 3 Xrotation Yrotation Zrotation
			JOINT Chest3
			{
				OFFSET 0.000000 0.000000 8.374491
				CHANNELS 3 Xrotation Yrotation Zrotation
				JOINT Chest4
				{
					OFFSET 0.000000 0.000000 8.374493
					CHANNELS 3 Xrotation Yrotation Zrotation
					JOINT Neck
					{
						OFFSET 0.000000 -0.000001 12.152554
						CHANNELS 3 Xrotation Yrotation Zrotation
						JOINT Head
						{
							OFFSET 0.000000 -0.040100 7.802319
							CHANNELS 3 Xrotation Yrotation Zrotation
							End Site
							{
								OFFSET 0.000000 -0.020946 14.853096
							}
						}
					}
					JOINT RightCollar
					{
						OFFSET -2.894404 0.000000 6.791374
						CHANNELS 3 Xrotation Yrotation Zrotation
						JOINT RightShoulder
						{
							OFFSET -13.574684 0.000000 0.000000
							CHANNELS 3 Xrotation Yrotation Zrotation
							JOINT RightElbow
							{
								OFFSET -23.923903 0.000000 0.000000
								CHANNELS 3 Xrotation Yrotation Zrotation
								JOINT RightWrist
								{
									OFFSET -19.846718 -0.012765 0.000000
									CHANNELS 3 Xrotation Yrotation Zrotation
									End Site
									{
										OFFSET -14.973145 0.000000 0.000000
									}
								}
							}
						}
					}
					JOINT LeftCollar
					{
						OFFSET 2.894404 0.000000 6.791374
						CHANNELS 3 Xrotation Yrotation Zrotation
						JOINT LeftShoulder
						{
							OFFSET 13.574684 0.000000 0.000000
							CHANNELS 3 Xrotation Yrotation Zrotation
							JOINT LeftElbow
							{
								OFFSET 23.923903 0.000000 0.000000
								CHANNELS 3 Xrotation Yrotation Zrotation
								JOINT LeftWrist
								{
									OFFSET 19.846718 -0.012765 0.000000
									CHANNELS 3 Xrotation Yrotation Zrotation
									End Site
									{
										OFFSET 14.973145 0.000000 0.000000
									}
								}
							}
						}
					}
				}
			}
		}
	}
	JOINT RightHip
	{
		OFFSET -9.469263 -0.004642 0.045487
		CHANNELS 3 Xrotation Yrotation Zrotation
		JOINT RightKnee
		{
			OFFSET 0.000000 -0.002666 -40.478676
			CHANNELS 3 Xrotation Yrotation Zrotation
			JOINT RightAnkle
			{
				OFFSET 0.000000 -0.049110 -35.224068
				CHANNELS 3 Xrotation Yrotation Zrotation
				JOINT RightToe
				{
					OFFSET 0.000000 -12.539530 -6.151390
					CHANNELS 3 Xrotation Yrotation Zrotation
					End Site
					{
						OFFSET 0.000000 -5.044995 -1.291870
					}
				}
			}
		}
	}
	JOINT LeftHip
	{
		OFFSET 9.469263 -0.004642 0.045487
		CHANNELS 3 Xrotation Yrotation Zrotation
		JOINT LeftKnee
		{
			OFFSET 0.000000 -0.002666 -40.478676
			CHANNELS 3 Xrotation Yrotation Zrotation
			JOINT LeftAnkle
			{
				OFFSET 0.000000 -0.049110 -35.224068
				CHANNELS 3 Xrotation Yrotation Zrotation
				JOINT LeftToe
				{
					OFFSET 0.000000 -12.539530 -6.151390
					CHANNELS 3 Xrotation Yrotation Zrotation
					End Site
					{
						OFFSET 0.000000 -5.044995 -1.291870
					}
				}
			}
		}
	}
}
MOTION
Frames: 15
Frame Time: 0.016667
-12.228356 -3.128694 82.829620 2.566344 5.998454 -111.513015 3.266396 0.447720 1.723397 1.450811 0.186091 0.762890 1.450811 0.186090 0.762892 1.088342 0.137758 0.572610 18.358927 -1.846041 -2.039870 -2.126821 -2.698314 -4.333581 0.470713 -8.841571 -2.796238 22.328394 -82.466843 30.655836 2.302505 5.906070 -1.647337 -6.069288 14.780734 25.246785 0.523245 10.758888 -4.894665 -45.716092 77.923770 38.823659 2.093123 -6.400932 -0.121018 12.283246 -12.075833 -22.034182 11.281539 0.102716 -0.582112 1.065225 -0.610442 -3.656777 -5.743060 -0.011267 3.610185 -0.007506 -0.021242 -0.004906 11.622753 -0.056892 1.195460 0.260139 -0.719665 2.801804 -5.442585 0.470010 -2.343843 0.024129 -0.022309 0.004913 
-12.215075 -3.137861 82.830070 2.545865 5.960779 -111.469910 3.246819 0.440893 1.724018 1.441601 0.183079 0.762619 1.441601 0.183079 0.762622 1.081430 0.135512 0.572399 18.365405 -1.835499 -2.043266 -2.114351 -2.678159 -4.336139 0.458987 -8.841486 -2.800508 22.416976 -82.397913 30.790407 2.338182 5.911951 -1.652227 -5.998212 14.720480 25.126005 0.509796 10.761081 -4.903329 -45.608827 77.912111 38.717682 2.131696 -6.380650 -0.122704 12.251960 -12.148414 -22.106119 11.253323 0.102244 -0.589460 1.018855 -0.607507 -3.692240 -5.709943 -0.018636 3.614258 -0.005468 -0.013956 -0.004968 11.574629 -0.060130 1.189284 0.236355 -0.715424 2.762070 -5.414890 0.477283 -2.333169 0.024631 -0.029245 0.006169 
-12.201409 -3.146721 82.830574 2.519867 5.923302 -111.424428 3.235513 0.437736 1.726365 1.436470 0.181918 0.764046 1.436470 0.181918 0.764048 1.077581 0.134644 0.573471 18.336386 -1.821323 -2.046842 -2.167657 -2.650196 -4.338591 0.429090 -8.845459 -2.811836 22.464841 -82.332439 30.892112 2.293853 5.905333 -1.649972 -5.922513 14.674653 25.019545 0.473905 10.758529 -4.906473 -45.498851 77.897099 38.597853 2.120522 -6.341615 -0.121012 12.277017 -12.231050 -22.166855 11.228694 0.103374 -0.608947 0.961291 -0.598208 -3.732795 -5.673462 -0.029500 3.649190 -0.001582 -0.008744 -0.004477 11.520199 -0.057208 1.183749 0.220630 -0.715307 2.723127 -5.388951 0.489438 -2.319659 0.023687 -0.036160 0.006089 
-12.186219 -3.157123 82.831139 2.489339 5.880988 -111.380352 3.227080 0.436654 1.731570 1.432986 0.181515 0.766638 1.432986 0.181514 0.766638 1.074968 0.134340 0.575408 18.298212 -1.806457 -2.046683 -2.237948 -2.621912 -4.334173 0.413631 -8.847575 -2.817948 22.392034 -82.274580 30.895558 2.218677 5.885764 -1.636012 -5.886928 14.655180 24.978944 0.460032 10.748456 -4.917308 -45.435545 77.887748 38.500513 2.056931 -6.302016 -0.128385 12.323403 -12.354751 -22.256971 11.196489 0.104363 -0.621075 0.905432 -0.587126 -3.785444 -5.638946 -0.040361 3.657173 0.002915 -0.004239 -0.004802 11.455041 -0.052217 1.182889 0.210518 -0.714834 2.679840 -5.362830 0.503901 -2.317796 0.021883 -0.043350 0.006146 
-12.168120 -3.167171 82.831627 2.455977 5.832284 -111.338347 3.212952 0.435482 1.737245 1.427004 0.181337 0.769168 1.427005 0.181337 0.769163 1.070482 0.134208 0.577299 18.272563 -1.790175 -2.039729 -2.284936 -2.593690 -4.316610 0.419342 -8.848267 -2.809737 22.359369 -82.220451 30.946187 2.154977 5.879668 -1.616052 -5.901016 14.661911 25.001151 0.468664 10.735220 -4.935794 -45.422356 77.891102 38.449235 1.989645 -6.278419 -0.135383 12.280665 -12.494376 -22.394414 11.149653 0.112210 -0.625492 0.858686 -0.582800 -3.840711 -5.606295 -0.050574 3.688763 0.006974 -0.000295 -0.005813 11.382778 -0.048622 1.191647 0.198469 -0.709287 2.629272 -5.334828 0.516854 -2.305552 0.020482 -0.050315 0.007109 
-12.149095 -3.181305 82.832420 2.421371 5.782510 -111.297980 3.193219 0.434742 1.741878 1.418676 0.181035 0.770875 1.418676 0.181035 0.770871 1.064236 0.133988 0.578580 18.268239 -1.770864 -2.025059 -2.292222 -2.563167 -4.283503 0.424029 -8.852517 -2.787747 22.408929 -82.151999 31.061603 2.112785 5.880057 -1.603183 -5.935714 14.700818 25.075820 0.470262 10.726635 -4.949633 -45.356657 77.908894 38.368670 1.951553 -6.274087 -0.129606 12.158474 -12.654871 -22.573258 11.095653 0.124083 -0.627719 0.821789 -0.585318 -3.881671 -5.578291 -0.055547 3.691543 0.010466 0.003034 -0.007870 11.305193 -0.046007 1.206522 0.189219 -0.700387 2.573077 -5.306613 0.528723 -2.320847 0.019753 -0.056151 0.007749 
-12.127861 -3.195237 82.833321 2.390429 5.732709 -111.260045 3.163068 0.428772 1.743139 1.405853 0.178799 0.771059 1.405853 0.178799 0.771064 1.054617 0.132326 0.578706 18.288019 -1.747543 -2.003619 -2.254604 -2.528299 -4.236209 0.432858 -8.849994 -2.769618 22.771878 -82.063555 31.479130 2.085519 5.898689 -1.609002 -5.969929 14.736164 25.161293 0.479531 10.725969 -4.956445 -45.264821 77.945395 38.271025 1.933662 -6.304571 -0.112348 12.016860 -12.774718 -22.742901 11.035967 0.134285 -0.626614 0.794744 -0.587900 -3.918535 -5.551299 -0.061690 3.683802 0.011789 0.006355 -0.010259 11.229605 -0.043090 1.234277 0.178914 -0.692623 2.512712 -5.278595 0.538890 -2.324021 0.019318 -0.060853 0.010175 
-12.107357 -3.207155 82.833359 2.363955 5.688135 -111.228087 3.135852 0.422090 1.748419 1.393646 0.176239 0.772684 1.393646 0.176238 0.772679 1.045459 0.130418 0.579915 18.321993 -1.727151 -1.978301 -2.190755 -2.500480 -4.182522 0.425107 -8.852537 -2.769974 23.277134 -81.953910 32.043050 2.062613 5.920932 -1.638165 -5.949107 14.755095 25.197674 0.476025 10.721748 -4.972394 -45.181462 77.969362 38.181567 1.917391 -6.330049 -0.081936 11.940250 -12.859633 -22.857904 10.984011 0.142414 -0.608145 0.765306 -0.590320 -3.961375 -5.524888 -0.067401 3.695619 0.014196 0.009588 -0.009757 11.159494 -0.045656 1.282175 0.172207 -0.686136 2.458001 -5.255670 0.553837 -2.369820 0.021437 -0.062293 0.010504 
-12.087378 -3.214014 82.832558 2.340390 5.653328 -111.194482 3.110844 0.413650 1.750415 1.382145 0.173154 0.773303 1.382145 0.173154 0.773303 1.036828 0.128118 0.580368 18.364553 -1.707949 -1.945616 -2.111051 -2.477483 -4.115641 0.412403 -8.861308 -2.775342 23.645348 -81.832647 32.487423 2.089485 5.927653 -1.685523 -5.914607 14.745040 25.198419 0.461869 10.717089 -4.976498 -45.108864 77.990918 38.100370 1.892140 -6.335385 -0.052366 11.974592 -12.930016 -22.887325 10.946437 0.142067 -0.586827 0.731684 -0.582513 -4.013248 -5.498678 -0.076694 3.707290 0.016633 0.013617 -0.009172 11.100616 -0.046667 1.332620 0.168086 -0.681728 2.400975 -5.237375 0.567718 -2.412338 0.024308 -0.061570 0.011780 
-12.067836 -3.219794 82.831528 2.319701 5.628072 -111.159362 3.090042 0.399647 1.742890 1.372814 0.167070 0.769571 1.372814 0.167070 0.769574 1.029823 0.123575 0.577562 18.411314 -1.679538 -1.905552 -2.023212 -2.440190 -4.032174 0.414475 -8.862206 -2.765804 23.774852 -81.694185 32.723764 2.179093 5.901723 -1.730157 -5.876842 14.732388 25.190233 0.467229 10.719482 -4.957113 -45.053588 78.005719 37.997995 1.878940 -6.314644 -0.017715 12.072317 -12.985763 -22.864482 10.919340 0.143850 -0.584250 0.699841 -0.581358 -4.052695 -5.475307 -0.080669 3.703274 0.019160 0.016247 -0.008941 11.050917 -0.047578 1.357842 0.166059 -0.679434 2.351721 -5.220096 0.580842 -2.427528 0.026982 -0.059469 0.011797 
-12.048920 -3.225480 82.830711 2.302052 5.615045 -111.122226 3.079136 0.390497 1.739285 1.367959 0.162761 0.767798 1.367959 0.162761 0.767799 1.026176 0.120353 0.576216 18.458400 -1.651592 -1.864637 -1.934798 -2.403968 -3.947320 0.418687 -8.878307 -2.756990 23.662350 -81.537501 32.740426 2.336085 5.845977 -1.769850 -5.872587 14.727390 25.210657 0.469928 10.708108 -4.945722 -44.859692 78.025390 37.732144 1.888800 -6.276822 0.043057 12.184573 -13.031338 -22.836340 10.902429 0.153053 -0.602413 0.673184 -0.588108 -4.076433 -5.454760 -0.082959 3.721485 0.021546 0.018166 -0.008758 11.008619 -0.043503 1.350998 0.175081 -0.683748 2.320038 -5.207730 0.592962 -2.436010 0.028675 -0.055389 0.010655 
-12.028848 -3.233706 82.830452 2.285167 5.615004 -111.084660 3.072035 0.384894 1.738446 1.365259 0.160403 0.766904 1.365259 0.160403 0.766903 1.024147 0.118590 0.575542 18.514263 -1.627045 -1.824894 -1.830230 -2.373759 -3.865598 0.441527 -8.885407 -2.759948 23.647179 -81.367279 32.874284 2.537180 5.782538 -1.800114 -5.869680 14.749006 25.279025 0.450730 10.708830 -4.951650 -44.502702 78.054036 37.325611 1.916426 -6.259168 0.104565 12.278880 -13.092942 -22.807485 10.888641 0.166905 -0.620922 0.664914 -0.598770 -4.100579 -5.442663 -0.082100 3.726870 0.022963 0.019347 -0.009631 10.973635 -0.031705 1.317786 0.192907 -0.689550 2.316065 -5.197247 0.601337 -2.422485 0.028703 -0.050813 0.010311 
-12.008902 -3.243260 82.830185 2.272924 5.622672 -111.052756 3.064808 0.380101 1.739276 1.362163 0.158321 0.766987 1.362163 0.158321 0.766989 1.021822 0.117032 0.575605 18.579421 -1.603804 -1.787942 -1.708428 -2.345213 -3.789253 0.456305 -8.892403 -2.759687 23.783753 -81.192262 33.150689 2.772567 5.740075 -1.833873 -5.872306 14.784079 25.372100 0.435720 10.706423 -4.960821 -43.995820 78.113417 36.779141 1.945061 -6.267827 0.150396 12.361657 -13.120221 -22.789184 10.875139 0.176995 -0.624692 0.672117 -0.599683 -4.127344 -5.437234 -0.083564 3.714145 0.024245 0.017085 -0.009625 10.943292 -0.025950 1.286292 0.219391 -0.686936 2.315388 -5.192825 0.605603 -2.428323 0.030143 -0.045943 0.009478 
-11.988406 -3.250132 82.829857 2.268370 5.636847 -111.028727 3.056604 0.375621 1.741752 1.358290 0.156327 0.767940 1.358290 0.156327 0.767937 1.018914 0.115539 0.576301 18.649874 -1.583311 -1.751420 -1.576910 -2.321611 -3.714526 0.464572 -8.904616 -2.766180 24.113940 -81.013809 33.619796 2.986196 5.719384 -1.872647 -5.851827 14.814177 25.436577 0.432534 10.700611 -4.974962 -43.370458 78.177375 36.105012 1.968034 -6.289979 0.194904 12.425261 -13.111124 -22.756035 10.866123 0.181643 -0.633409 0.687186 -0.599372 -4.143842 -5.435758 -0.082709 3.721118 0.025676 0.013779 -0.008997 10.920754 -0.026776 1.276965 0.252291 -0.678206 2.300457 -5.194748 0.606854 -2.433934 0.032181 -0.041786 0.009357 
-11.969979 -3.255198 82.829956 2.268756 5.658375 -111.009337 3.047112 0.369375 1.744028 1.353645 0.153325 0.769030 1.353645 0.153324 0.769032 1.015428 0.113291 0.577116 18.729888 -1.560656 -1.713891 -1.427570 -2.294561 -3.637083 0.486190 -8.911226 -2.770783 24.466084 -80.837447 34.135868 3.133903 5.696131 -1.915662 -5.802144 14.817295 25.440505 0.426811 10.698065 -4.990033 -42.825887 78.216048 35.499809 1.996849 -6.300988 0.244034 12.480160 -13.122727 -22.702978 10.865435 0.184233 -0.659140 0.705952 -0.598434 -4.142601 -5.435086 -0.083101 3.736733 0.024948 0.012202 -0.008662 10.905963 -0.028595 1.291781 0.291752 -0.671281 2.267734 -5.201489 0.608503 -2.427417 0.033129 -0.037253 0.009195 
